<?xml version="1.0" encoding="UTF-8" standalone="no" ?>
<!DOCTYPE svg PUBLIC "-//W3C//DTD SVG 1.1//EN" "http://www.w3.org/Graphics/SVG/1.1/DTD/svg11.dtd">
<svg xmlns="http://www.w3.org/2000/svg" xmlns:xlink="http://www.w3.org/1999/xlink" version="1.1" width="1080" height="1080" viewBox="0 0 1080 1080" xml:space="preserve">
<desc>Created with Fabric.js 5.2.4</desc>
<defs>
</defs>
<rect x="0" y="0" width="100%" height="100%" fill="transparent"></rect>
<g transform="matrix(1 0 0 1 540 540)" id="207c7ef5-343a-410f-8f11-62aff4c3db29"  >
</g>
<g transform="matrix(1 0 0 1 540 540)" id="c8e00775-2fe1-4222-9d2c-b5e284210395"  >
<rect style="stroke: none; stroke-width: 1; stroke-dasharray: none; stroke-linecap: butt; stroke-dashoffset: 0; stroke-linejoin: miter; stroke-miterlimit: 4; fill: rgb(255,255,255); fill-rule: nonzero; opacity: 1; visibility: hidden;" vector-effect="non-scaling-stroke"  x="-540" y="-540" rx="0" ry="0" width="1080" height="1080" />
</g>
<g transform="matrix(1 0 0 1 525.55 508.97)"  >
<path style="stroke: rgb(0,0,0); stroke-width: 0; stroke-dasharray: none; stroke-linecap: butt; stroke-dashoffset: 0; stroke-linejoin: miter; stroke-miterlimit: 4; fill: rgb(37,35,35); fill-rule: nonzero; opacity: 1;" vector-effect="non-scaling-stroke"  transform=" translate(-256, -256)" d="M 478.608 300.522 L 478.608 267.132 L 411.827 267.132 L 411.827 233.74 L 445.217 233.74 L 445.217 233.739 L 445.21799999999996 233.739 L 445.21799999999996 200.348 L 478.609 200.348 L 478.609 66.783 L 445.217 66.783 L 445.217 33.393 L 411.827 33.393 L 411.827 0 L 0 0 L 0 100.174 L 33.39 100.174 L 33.39 422.957 L 0 422.957 L 0 512 L 445.217 512 L 445.217 478.61 L 478.60699999999997 478.61 L 478.60699999999997 478.60900000000004 L 478.60799999999995 478.60900000000004 L 478.60799999999995 445.218 L 512 445.218 L 512 300.522 L 478.608 300.522 z M 367.304 389.565 L 333.91299999999995 389.565 L 333.91299999999995 422.956 L 144.696 422.956 L 144.696 322.783 L 333.913 322.783 L 333.913 356.17400000000004 L 367.30400000000003 356.17400000000004 L 367.30400000000003 389.565 z M 367.304 155.826 L 333.91299999999995 155.826 L 333.91299999999995 189.21699999999998 L 144.696 189.21699999999998 L 144.696 89.044 L 333.913 89.044 L 333.913 122.435 L 367.30400000000003 122.435 L 367.30400000000003 155.826 z" stroke-linecap="round" />
</g>
<g transform="matrix(9.2 0 0 9.2 509.62 509.62)" id="4ee51db6-751d-4284-a64b-88478d92e377"  >
<path style="stroke: rgb(0,0,0); stroke-width: 0; stroke-dasharray: none; stroke-linecap: butt; stroke-dashoffset: 0; stroke-linejoin: miter; stroke-miterlimit: 4; fill: rgb(0,0,0); fill-rule: nonzero; opacity: 1;" vector-effect="non-scaling-stroke"  transform=" translate(-50, -50)" d="M 50 92.875 C 26.358 92.875 7.125 73.642 7.125 50 C 7.125 26.358000000000004 26.358 7.125 50 7.125 C 73.642 7.125 92.875 26.358 92.875 50 C 92.875 73.642 73.642 92.875 50 92.875 z M 50 9.125 C 27.461 9.125 9.125 27.461 9.125 50 C 9.125 72.538 27.461 90.875 50 90.875 C 72.538 90.875 90.875 72.538 90.875 50 C 90.875 27.461 72.538 9.125 50 9.125 z" stroke-linecap="round" />
</g>
</svg>